<?xml version="1.0" encoding="UTF-8"?>
<svg width="166px" height="145px" viewBox="0 0 166 145" version="1.1" xmlns="http://www.w3.org/2000/svg" xmlns:xlink="http://www.w3.org/1999/xlink">
    <!-- Generator: Sketch 53.2 (72643) - https://sketchapp.com -->
    <title>Shape</title>
    <desc>Created with Sketch.</desc>
    <g id="Page-1" stroke="none" stroke-width="1" fill="none" fill-rule="evenodd">
        <g id="Technologies" transform="translate(-1056.000000, -1067.000000)" fill="#00B8F7">
            <path d="M1139.03207,1154 C1147.31498,1153.98495 1154.01525,1147.4793 1153.99997,1139.47141 C1153.9847,1131.46353 1147.25388,1124.98497 1138.97096,1125.00003 C1130.69721,1125.01508 1124,1131.50267 1124,1139.50152 C1124,1147.5094 1130.71555,1154 1139.00151,1154 L1139.03207,1154 Z M1213.29255,1124.76167 C1208.09825,1120.58719 1200.89687,1116.82048 1192.33731,1113.92371 C1190.60487,1113.34376 1188.81509,1112.794 1186.96495,1112.27144 C1187.27884,1111.05413 1187.55349,1109.86401 1187.78891,1108.70712 C1191.92382,1089.08521 1188.97204,1073.80997 1180.17404,1068.82596 C1175.80673,1066.39135 1169.96353,1066.39135 1163.11527,1068.82596 C1156.91593,1071.08538 1149.98015,1075.37465 1143.04436,1081.23162 C1141.66505,1082.38851 1140.28876,1083.62696 1138.91247,1084.94093 C1138.02513,1084.08912 1137.11967,1083.25845 1136.19611,1082.44893 C1120.96636,1069.11594 1106.02938,1064.01412 1097.2344,1069.02834 C1092.89425,1071.63815 1089.94247,1076.56477 1088.67484,1083.52124 C1087.58225,1090.18774 1087.9052,1098.01112 1089.64669,1106.99745 L1091.1256,1112.50101 C1089.15473,1113.08398 1087.18989,1113.75758 1085.22204,1114.53086 C1066.91978,1120.32741 1056,1129.8937 1056,1139.45696 C1056,1144.38358 1059.24756,1149.60017 1064.85535,1154.52679 C1070.16735,1159.16344 1077.78222,1162.93316 1086.60738,1166.03231 L1091.03505,1167.19223 C1090.44651,1169.20093 1089.95455,1171.13413 1089.55916,1172.98878 C1086.01884,1191.45077 1088.9676,1205.3033 1097.38229,1210.08795 C1099.74251,1211.38984 1102.39851,1212 1105.35029,1212 C1108.30207,1212 1111.54964,1211.42004 1115.00244,1210.14534 C1121.49756,1207.82551 1128.874,1203.47885 1135.78262,1197.39232 C1136.96273,1196.42572 1138.14284,1195.40173 1139.32295,1194.32035 L1143.75062,1198.23205 C1154.37764,1207.21837 1164.70887,1211.94261 1172.67687,1211.94261 C1175.62865,1211.94261 1178.28465,1211.36265 1180.53018,1209.97015 C1184.95785,1207.36336 1188.02735,1202.34914 1189.38553,1195.1329 C1190.65316,1188.4664 1190.38756,1180.06004 1188.55855,1171.07673 C1188.28087,1169.68423 1187.95793,1168.23434 1187.58367,1166.73007 L1190.71353,1165.86014 C1210.07516,1159.57122 1222,1149.42498 1222,1139.48414 C1222,1134.55752 1219.04822,1129.5433 1213.44044,1124.99426 L1213.29255,1124.76167 Z M1147.48452,1086.72866 C1153.6386,1081.33978 1159.73277,1077.44611 1165.15579,1075.48402 C1169.84177,1073.72943 1173.73975,1073.52498 1176.14266,1074.90119 C1178.69238,1076.36284 1180.53801,1080.08257 1181.41588,1085.32194 C1182.47052,1091.47063 1182.09001,1099.17253 1180.33127,1107.69221 L1179.74703,1111 C1172.50534,1109.34611 1165.16478,1108.17434 1157.77029,1107.48777 C1153.56969,1101.43061 1148.96761,1095.66029 1144,1090.21343 L1147.8081,1086.75917 L1147.48452,1086.72866 Z M1105.31052,1148.02754 C1106.74051,1150.84608 1108.27136,1153.68605 1109.89419,1156.54437 C1111.55854,1159.42106 1113.26147,1162.2396 1115,1165 C1109.96242,1164.44302 1104.95451,1163.61674 1100,1162.53339 C1101.45075,1157.83582 1103.19225,1152.96076 1105.28085,1148 L1105.31052,1148.02754 Z M1105.23361,1131 C1103.17626,1126.10442 1101.41067,1121.2676 1100,1116.57923 C1104.70423,1115.51228 1109.70624,1114.65254 1115,1114 C1113.23441,1116.72767 1111.54101,1119.51719 1109.91378,1122.36547 C1108.28354,1125.2354 1106.71646,1128.10224 1105.20654,1130.97217 L1105.23361,1131 Z M1108.50263,1139.0419 C1110.66455,1134.67864 1113.03539,1130.31238 1115.6091,1126.03591 C1118.15859,1121.72652 1120.85039,1117.56377 1123.60578,1113.57459 C1128.63814,1113.22744 1133.67353,1113 1138.79673,1113 C1143.91993,1113 1148.86449,1113.20051 1153.89685,1113.57459 C1156.5614,1117.50691 1159.22898,1121.6128 1161.89353,1125.97606 C1164.45816,1130.38122 1166.829,1134.68762 1169,1138.89825 C1166.92589,1143.20465 1164.26134,1147.60083 1161.89353,1151.96409 C1159.52268,1156.32735 1156.5614,1160.57689 1153.89685,1164.48227 C1148.86449,1164.82643 1143.8291,1165 1138.5,1165 C1133.1709,1165 1128.13551,1164.85635 1123.39685,1164.53913 C1120.43557,1160.52003 1117.77102,1156.32735 1115.10647,1152.05087 C1112.44192,1147.74448 1110.07411,1143.37822 1108,1139.0419 L1108.50263,1139.0419 Z M1167.88508,1155.64561 C1169.5446,1152.77587 1171.10479,1149.894 1172.57148,1147 C1174.62836,1151.6929 1176.43981,1156.495 1178,1161.37901 C1173.04772,1162.51963 1168.04285,1163.39329 1163,1164 L1167.85878,1155.67595 L1167.88508,1155.64561 Z M1172.76639,1130.97217 C1171.25647,1128.12389 1169.66533,1125.2354 1167.999,1122.30671 C1166.37177,1119.45843 1164.70543,1116.68747 1163,1114 C1168.23662,1114.65254 1173.29577,1115.54011 1178,1116.66891 C1176.47504,1121.53356 1174.70644,1126.31472 1172.70624,1131 L1172.76639,1130.97217 Z M1139.19298,1095 C1142.66054,1098.83012 1145.9336,1102.83533 1149,1107 C1145.73302,1106.7999 1142.43261,1106.69984 1139.10485,1106.69984 C1135.77405,1106.69984 1132.40678,1106.7999 1129,1107 C1132.26698,1102.64773 1135.537,1098.59875 1138.80702,1095 L1139.19298,1095 Z M1095.56647,1084.75534 C1096.45731,1079.78726 1098.23294,1076.36656 1100.66306,1074.96233 C1103.24166,1073.50328 1107.42014,1073.70737 1112.51674,1075.54717 C1118.3557,1077.74032 1124.9643,1081.91948 1131.482,1087.70695 C1132.37285,1088.40754 1133.17279,1089.16601 1134,1089.95493 C1128.88826,1095.48349 1124.1583,1101.34102 1119.83741,1107.49097 C1112.35917,1108.18242 1104.93548,1109.35209 1097.61177,1111 C1097.17847,1109.44043 1096.80274,1107.78338 1096.48458,1106.03191 C1094.8847,1098.13963 1094.56048,1090.83219 1095.59677,1085.27926 L1095.56647,1084.75534 Z M1092.75271,1159.97311 C1091.36957,1159.59063 1090.00463,1159.17827 1088.65789,1158.73901 C1080.65022,1156.07361 1073.88617,1152.6044 1069.2302,1148.7049 C1065.22637,1145.40602 1063,1142.02347 1063,1139.15786 C1063,1132.04613 1075.16315,1124.82086 1087.14735,1120.72116 C1088.92784,1120.14744 1090.88426,1119.57372 1092.87101,1119 C1095.11255,1125.95336 1097.82727,1132.75432 1101,1139.35806 C1097.86063,1146.06042 1095.18231,1152.95401 1092.9893,1160 L1092.75271,1159.97311 Z M1131.18808,1192.22491 C1117.13696,1204.15651 1105.58246,1206.67049 1100.75971,1204.0692 C1094.50597,1200.45931 1093.90921,1186.56471 1096.29319,1174.40128 L1097.78203,1169 C1105.24145,1170.55957 1112.80135,1171.62236 1120.40997,1172.17634 C1124.87345,1178.22493 1129.74795,1183.97847 1135,1189.39481 L1131.96447,1192.22491 L1131.18808,1192.22491 Z M1139.14957,1184 C1135.56593,1180.34315 1132.28144,1176.33291 1129,1172.02766 C1132.18376,1172.1475 1135.4652,1172.21511 1138.85043,1172.23355 C1142.2326,1172.23355 1145.61477,1172.15672 1149,1172 C1145.92613,1176.14545 1142.63858,1180.13111 1139.14957,1183.93854 L1139.14957,1184 Z M1177.07957,1203.95014 C1170.52216,1207.64824 1158.00762,1201.01675 1148.17151,1192.79774 C1146.78202,1191.62315 1145.39254,1190.35375 1144,1188.98341 C1149.06737,1183.45308 1153.74775,1177.58935 1158.00762,1171.43198 C1165.62543,1170.79575 1173.19448,1169.6487 1180.65384,1168 L1181.54665,1171.81433 C1185.12397,1189.71752 1181.54665,1200.86992 1176.78095,1203.80332 L1177.07957,1203.95014 Z M1188.07748,1159.12908 L1185.30064,1160 C1183.014,1152.92071 1180.24015,1146.01077 1177,1139.30949 C1180.18037,1132.72916 1182.91536,1125.94321 1185.18406,1119 C1186.93865,1119.4657 1188.59459,1119.96769 1190.15488,1120.509 C1198.04602,1123.12177 1204.47849,1126.31214 1208.86345,1130.08312 C1212.66255,1133.27652 1215,1136.46688 1215,1139.07966 C1215,1144.30218 1206.81594,1153.00538 1188.69323,1158.80853 L1188.07748,1159.12908 Z" id="Shape"></path>
        </g>
    </g>
</svg>